<?xml version="1.0" encoding="utf-8"?>
<!-- Generator: Adobe Illustrator 24.0.3, SVG Export Plug-In . SVG Version: 6.00 Build 0)  -->
<svg version="1.1" id="レイヤー_1" xmlns="http://www.w3.org/2000/svg" xmlns:xlink="http://www.w3.org/1999/xlink" x="0px"
	 y="0px" viewBox="0 0 1280 1024" style="enable-background:new 0 0 1280 1024;" xml:space="preserve">
<style type="text/css">
	.st0{fill:#CCCCCC;}
	.st1{fill:#E44D26;}
	.st2{fill:#F16529;}
	.st3{fill:#EBEBEB;}
	.st4{fill:#FFFFFF;}
	.st5{fill:#264DE4;}
	.st6{fill:#2965F1;}
</style>
<g>
	<rect class="st0" width="1280" height="1024"/>
</g>
<g>
	<g>
		<g>
			<path class="st1" d="M511.71,356.87l-36.22,370.68l-162.81,41.24l-162.36-41.18l-36.18-370.74L511.71,356.87L511.71,356.87z"/>
			<path class="st2" d="M312.95,736.86l131.56-33.32l30.95-316.76H312.95V736.86L312.95,736.86z"/>
			<path class="st3" d="M241.9,477.89h71.05v-45.56H187.6l1.2,12.25l12.29,125.85h111.87v-45.56H246.5L241.9,477.89L241.9,477.89z"
				/>
			<path class="st3" d="M253.76,593.21H203.8l6.97,71.39l101.95,25.86l0.23-0.06v-47.31l-0.22,0.05l-55.43-13.67L253.76,593.21
				L253.76,593.21z"/>
			<path d="M150.87,255.79h24.94v22.78h23.38v-22.78h24.93v68.34h-24.93v-22.78h-23.38v24.2h-24.93L150.87,255.79L150.87,255.79
				L150.87,255.79z"/>
			<path d="M258.4,278.57h-23.38v-22.78h70.13v22.78h-21.82v45.56h-24.92L258.4,278.57L258.4,278.57L258.4,278.57z"/>
			<path d="M316.07,255.79h26.54l16.32,24.51l16.3-24.51h26.55v69.76h-24.93v-35.26l-17.69,25.29h-0.45L341,290.29v35.26h-24.93
				L316.07,255.79L316.07,255.79z"/>
			<path d="M414.25,255.79h24.93v46.98h35.84v22.78h-60.78v-69.76H414.25z"/>
			<path class="st4" d="M312.95,570.43h61.41l-5.79,59.09l-55.62,13.71v47.4l102.24-25.89l0.75-7.7l11.72-119.94l1.22-12.23H312.95
				V570.43L312.95,570.43z"/>
			<path class="st4" d="M312.95,477.78v0.11h120.46l1-10.24l2.27-23.1l1.19-12.22H312.95V477.78L312.95,477.78z"/>
		</g>
	</g>
	<g>
		<g>
			<path class="st5" d="M968.47,768.79l-161.72-41.18l-36.04-370.74h396l-36.08,370.68L968.47,768.79L968.47,768.79z"/>
			<path class="st6" d="M1099.77,704.96l30.83-316.76H968.74v350.08L1099.77,704.96L1099.77,704.96z"/>
			<path class="st3" d="M853.12,524.87l4.45,45.56h111.16v-45.56H853.12L853.12,524.87z"/>
			<path class="st3" d="M844.18,433.76l4.52,45.56h120.04v-45.56H844.18L844.18,433.76z"/>
			<path class="st3" d="M968.74,643.1l-0.22,0.05l-55.21-13.67l-3.53-36.26h-49.77l6.95,71.39l101.55,25.86l0.23-0.06L968.74,643.1
				L968.74,643.1z"/>
			<path d="M863.18,255.79h60.54v24.2h-35.7v22.78h35.7v22.78h-60.54V255.79L863.18,255.79z"/>
			<path d="M936.14,255.79h60.54v21.36h-35.7v4.27h35.7v45.56h-60.54v-21.36h35.7v-4.27h-35.7V255.79L936.14,255.79z"/>
			<path d="M1007.54,255.79h60.54v21.36h-35.7v4.27h35.7v45.56h-60.54v-21.36h35.7v-4.27h-35.7V255.79L1007.54,255.79z"/>
			<path class="st4" d="M1084.48,524.77l8.99-92.43H968.74v45.56h70.49l-4.55,46.98h-65.94v45.56h61.31l-5.78,59.23l-55.53,13.75
				v47.51l102.08-25.95l0.75-7.72l11.7-120.23L1084.48,524.77L1084.48,524.77z"/>
		</g>
	</g>
	<rect x="566.71" y="492.79" width="152" height="45"/>
	<rect x="618.71" y="440.79" width="48" height="143"/>
</g>
</svg>
