<?xml version="1.0" encoding="utf-8"?>
<!-- Generator: Adobe Illustrator 24.0.3, SVG Export Plug-In . SVG Version: 6.00 Build 0)  -->
<svg version="1.1" id="レイヤー_1" xmlns="http://www.w3.org/2000/svg" xmlns:xlink="http://www.w3.org/1999/xlink" x="0px"
	 y="0px" viewBox="0 0 1280 1024" style="enable-background:new 0 0 1280 1024;" xml:space="preserve">
<style type="text/css">
	.st0{fill:#CCCCCC;}
	.st1{fill:#F7DF1E;}
</style>
<rect class="st0" width="1280" height="1024"/>
<g>
	<g>
		<path class="st1" d="M329,224h622v576H329V224z"/>
		<path d="M492.2,706.41l47.49-26.68c9.16,15.08,17.49,27.83,37.48,27.83c19.16,0,31.24-6.96,31.24-34.02V489.5h58.31v184.81
			c0,56.06-35.4,81.58-87.05,81.58C533.02,755.89,505.95,733.47,492.2,706.41"/>
		<path d="M698.2,700.51l47.59-25.52c12.53,18.95,28.81,32.87,57.62,32.87c24.22,0,39.66-11.21,39.66-26.68
			c0-18.56-15.86-25.13-42.59-35.96l-14.61-5.8c-42.17-16.62-70.15-37.5-70.15-81.58c0-40.6,33.4-71.53,85.59-71.53
			c37.16,0,63.88,11.99,83.09,43.31l-45.51,27.06c-10.02-16.62-20.87-23.2-37.57-23.2c-17.12,0-27.98,10.05-27.98,23.2
			c0,16.24,10.86,22.81,35.91,32.87l14.61,5.8c49.69,19.72,77.66,39.82,77.66,85.06c0,48.72-41.33,75.4-96.86,75.4
			C750.39,755.8,715.31,731.83,698.2,700.51"/>
	</g>
</g>
</svg>
