<?xml version="1.0" encoding="utf-8"?>
<!-- Generator: Adobe Illustrator 24.0.3, SVG Export Plug-In . SVG Version: 6.00 Build 0)  -->
<svg version="1.1" id="レイヤー_1" xmlns="http://www.w3.org/2000/svg" xmlns:xlink="http://www.w3.org/1999/xlink" x="0px"
	 y="0px" viewBox="0 0 1280 1024" style="enable-background:new 0 0 1280 1024;" xml:space="preserve">
<style type="text/css">
	.st0{fill:#CCCCCC;}
	.st1{fill:#FFFFFF;}
	.st2{fill:#FF2D20;}
</style>
<rect class="st0" width="1280" height="1024"/>
<g>
	<g id="XMLID_1_">
		<g>
			<polygon class="st1" points="837.84,428.18 837.84,527.28 797.41,506.24 741.58,477.2 741.58,378.1 782,399.13 			"/>
			<polygon class="st1" points="945.21,362.41 848.32,412.83 751.42,362.42 848.32,312 			"/>
			<polygon class="st1" points="955.22,477.02 858.96,527.46 858.96,427.66 914.8,398.4 955.22,377.22 			"/>
			<polygon class="st1" points="837.84,557.86 837.84,657.9 624.2,769.05 624.2,668.06 782.43,586.46 			"/>
			<polygon class="st1" points="828.84,542.93 757.79,579.58 615.65,652.91 518.91,603.42 620.52,550.56 732.01,492.55 			"/>
			<polygon class="st1" points="605.42,319.03 605.42,537.29 549.59,566.34 509.16,587.37 509.16,369.11 565,340.06 			"/>
			<path class="st1" d="M605.42,668.45v99.89L394.13,658.41V319.08l40.42,21.01l55.83,29.06v233.34v1.01c0,0-0.63,0.66-0.58,0.98
				c0.04,0.37-1.26,1.03-1.65,1.22c-0.05-0.1-0.08-0.2-0.11-0.3v0.36c0,0,0.04-0.02,0.11-0.06c0.1,0.23,0.24,0.46,0.35,0.69
				c0.16,0.38,0.29,0.78,0.52,1.11l0.01,0.03c0.19,0.31,0.49,0.57,0.73,0.87c0.27,0.31,0.49,0.65,0.81,0.93l0.03,0.03
				c0.26,0.24,0.62,0.42,0.93,0.64c0.35,0.25,0.67,0.53,1.05,0.73l0.05,0.03l0.04,0.02L605.42,668.45z"/>
			<polygon class="st1" points="596.24,302.54 499.34,352.96 402.44,302.55 499.35,252.14 			"/>
			<path class="st2" d="M955.22,477.02v-99.8L914.8,398.4l-55.84,29.26v99.8L955.22,477.02z M394.13,319.08v339.33l211.29,109.93
				v-99.89l-112.75-57.67l-0.04-0.02l-0.05-0.03c-0.38-0.2-0.7-0.48-1.05-0.73c-0.31-0.22-0.67-0.4-0.93-0.64l-0.03-0.03
				c-0.32-0.28-0.54-0.62-0.81-0.93c-0.24-0.3-0.54-0.56-0.73-0.87l-0.01-0.03c-0.23-0.33-0.36-0.73-0.52-1.11
				c-0.11-0.23-0.25-0.46-0.35-0.69c0.39-0.19,1.69-0.85,1.65-1.22c-0.05-0.32,0.58-0.98,0.58-0.98v-1.01V369.15l-55.83-29.06
				L394.13,319.08z M974,361.56v120.02c0,3.13-1.87,6.03-4.91,7.59l-112.47,57.99V662.2c0,3.13-1.84,6.02-4.83,7.59L619.62,790.83
				c-0.53,0.28-1.11,0.45-1.69,0.64c-0.22,0.06-0.42,0.19-0.65,0.24c-1.62,0.39-3.33,0.39-4.95,0c-0.27-0.07-0.51-0.2-0.76-0.28
				c-0.54-0.18-1.09-0.33-1.6-0.6L377.86,669.79c-3.01-1.56-4.86-4.45-4.86-7.59V302.16c0-0.79,0.12-1.56,0.34-2.3
				c0.07-0.25,0.24-0.48,0.34-0.73c0.18-0.46,0.35-0.93,0.61-1.36c0.18-0.28,0.45-0.51,0.67-0.78c0.27-0.35,0.53-0.71,0.85-1.01
				c0.28-0.26,0.64-0.44,0.96-0.66c0.35-0.26,0.66-0.55,1.06-0.76h3.25l115.51-60.43c2.97-1.55,6.64-1.55,9.61,0l115.51,60.43h0.03
				c0.38,0.22,0.71,0.5,1.06,0.75c0.31,0.22,0.66,0.41,0.93,0.65c0.34,0.32,0.58,0.68,0.87,1.03c0.2,0.26,0.48,0.49,0.65,0.77
				c0.27,0.44,0.43,0.9,0.62,1.36c0.1,0.25,0.27,0.48,0.34,0.74c0.22,0.75,0.33,1.51,0.34,2.28v224.55l96.25-50.36V361.54
				c0-0.77,0.12-1.54,0.34-2.27c0.08-0.27,0.24-0.49,0.33-0.75c0.2-0.45,0.36-0.92,0.63-1.35c0.18-0.28,0.44-0.51,0.65-0.78
				c0.29-0.35,0.53-0.71,0.86-1.01c0.28-0.25,0.63-0.44,0.94-0.66c0.36-0.26,0.67-0.54,1.06-0.75h-3.03l117.38-60.52
				c3.02-1.56,6.75-1.56,9.77,0l117.37,60.52c0.42,0.22,0.74,0.49,1.1,0.74c0.31,0.22,0.66,0.42,0.94,0.66
				c0.34,0.32,0.59,0.68,0.88,1.03c0.22,0.26,0.49,0.49,0.66,0.77c0.28,0.43,0.44,0.9,0.64,1.36c0.11,0.25,0.26,0.48,0.34,0.74
				C973.88,360.02,974,360.79,974,361.56z M848.32,412.83l96.89-50.42L848.32,312l-96.9,50.42L848.32,412.83z M837.84,657.9V557.86
				l-55.41,28.6l-158.23,81.6v100.99L837.84,657.9z M837.84,527.28v-99.1L782,399.13l-40.42-21.03v99.1l55.83,29.04L837.84,527.28z
				 M757.79,579.58l71.05-36.65l-96.83-50.38l-111.49,58.01l-101.61,52.86l96.74,49.49L757.79,579.58z M605.42,537.29V319.03
				L565,340.06l-55.84,29.05v218.26l40.43-21.03L605.42,537.29z M499.34,352.96l96.9-50.42l-96.89-50.4l0.01-0.01h-0.02l0.01,0.01
				l-96.91,50.41L499.34,352.96z"/>
			<polygon class="st2" points="499.36,252.13 499.35,252.14 499.34,252.13 			"/>
			<path class="st2" d="M488.04,605.4c0.03,0.1,0.06,0.2,0.11,0.3c-0.07,0.04-0.11,0.06-0.11,0.06V605.4z"/>
		</g>
		<g>
		</g>
	</g>
</g>
</svg>
