<?xml version="1.0" encoding="utf-8"?>
<!-- Generator: Adobe Illustrator 24.0.3, SVG Export Plug-In . SVG Version: 6.00 Build 0)  -->
<svg version="1.1" id="レイヤー_1" xmlns="http://www.w3.org/2000/svg" xmlns:xlink="http://www.w3.org/1999/xlink" x="0px"
	 y="0px" viewBox="0 0 1280 1024" style="enable-background:new 0 0 1280 1024;" xml:space="preserve">
<style type="text/css">
	.st0{fill:#CCCCCC;}
	.st1{fill:url(#SVGID_1_);}
	.st2{fill:#6181B6;}
	.st3{fill:#FFFFFF;}
	.st4{fill:#000004;}
	.st5{fill:#00546B;}
</style>
<rect class="st0" width="1280" height="1024"/>
<g>
	<g>
		
			<radialGradient id="SVGID_1_" cx="-294.3032" cy="2957.5139" r="363.0565" gradientTransform="matrix(0.8767 0 0 -0.8639 486.7993 2987.9741)" gradientUnits="userSpaceOnUse">
			<stop  offset="0" style="stop-color:#FFFFFF"/>
			<stop  offset="0.5" style="stop-color:#4C6B97"/>
			<stop  offset="1" style="stop-color:#231F20"/>
		</radialGradient>
		<ellipse class="st1" cx="325.64" cy="514.43" rx="242.36" ry="125.57"/>
		<ellipse class="st2" cx="325.64" cy="514.43" rx="232.89" ry="116.24"/>
		<g>
			<path class="st3" d="M372.82,551.63l11.59-58.81c2.66-13.3,0.38-23.22-6.46-29.4c-6.65-5.99-18.05-8.99-34.78-8.99h-19.99
				l5.68-29.11c0.19-1.12,0-2.24-0.76-3.17s-1.7-1.31-2.84-1.31h-27.47c-1.9,0-3.43,1.31-3.81,3l-12.38,62.48
				c-1.14-7.13-3.81-13.13-8.38-18.01c-8.19-9.19-20.94-13.88-38.27-13.88h-52.95c-1.9,0-3.43,1.31-3.81,3l-24.94,126.84
				c-0.19,1.13,0,2.25,0.76,3.19c0.76,0.94,1.71,1.31,2.86,1.31h27.86c1.9,0,3.43-1.31,3.81-3l6.09-30.58h20.61
				c0,0,20.07-1.01,27.08-3.25c7.38-2.43,14.01-6.34,19.88-11.75c4.73-4.29,8.71-9.14,11.74-14.37L269.03,551
				c-0.19,1.12,0,2.24,0.76,3.17c0.76,0.93,2.84,2.88,2.84,2.88h27.33c1.96,0,3.53-1.35,3.92-3.09l14.13-71.54h18.57
				c8.2,0,10.49,1.5,11.26,2.26c0.57,0.56,1.72,2.82,0.38,9.78l-11.07,56.22c-0.19,1.13,0,2.26,0.76,3.2
				c0.76,0.94,1.72,1.32,2.86,1.32h28.43C370.92,554.62,372.44,553.31,372.82,551.63z M244.62,503.33
				c-1.69,8.7-4.88,14.99-9.58,18.5c-4.69,3.52-12.39,5.37-22.53,5.37H200.3l8.83-44.78h15.77c11.64,0,16.34,2.41,18.21,4.44
				C245.55,489.82,246.12,495.55,244.62,503.33z"/>
			<path class="st3" d="M490.67,469.95c-8.05-9.04-20.59-13.65-37.63-13.65H399.2c-1.88,0-3.38,1.3-3.76,2.96l-24.63,125.06
				c-0.19,1.11,0,2.22,0.75,3.15c0.75,0.93,1.69,1.3,2.82,1.3h27.73c1.9,0,3.43-1.31,3.81-3l6.09-30.58h21
				c10.67,0,19.85-1.11,26.77-3.32c7.3-2.4,13.85-6.27,19.66-11.62c4.87-4.43,8.99-9.41,11.98-14.76c3-5.35,5.24-11.25,6.55-17.71
				C501.16,491.72,498.72,479.17,490.67,469.95z M461.79,503.33c-1.69,8.7-4.88,14.99-9.58,18.5c-4.69,3.52-12.39,5.37-22.53,5.37
				h-12.21l8.83-44.78h15.77c11.64,0,16.34,2.41,18.21,4.44C462.92,489.82,463.48,495.55,461.79,503.33z"/>
		</g>
		<g>
			<path class="st4" d="M224.9,478.68c10.53,0,17.48,1.85,21.06,5.74c3.57,3.89,4.32,10.37,2.44,19.64
				c-1.88,9.63-5.64,16.67-11.09,20.75c-5.45,4.08-13.72,6.11-24.82,6.11h-16.73l10.34-52.24H224.9z M157.04,585.04h27.91
				l6.66-33.59h23.58c10.69,0,19.28-1.13,26.15-3.39s12.98-5.83,18.71-11.1c4.77-4.33,8.59-9.03,11.45-14.11
				c2.86-5.08,4.96-10.72,6.11-16.93c3.05-15.05,0.76-26.71-6.68-35.17s-19.28-12.6-35.5-12.6h-53.39L157.04,585.04z"/>
			<path class="st4" d="M297.72,426.44h27.57l-6.29,31.72h24.29c15.65,0,26.34,2.63,32.26,8.09c5.92,5.45,7.63,14.11,5.34,26.14
				l-11.64,59.06h-27.96l11.07-56.22c1.34-6.39,0.76-10.72-1.34-12.97c-2.1-2.26-6.87-3.57-13.93-3.57h-22.32l-14.31,72.77H273.1
				L297.72,426.44z"/>
			<path class="st4" d="M442.07,478.68c10.53,0,17.48,1.85,21.06,5.74c3.57,3.89,4.32,10.37,2.44,19.64
				c-1.88,9.63-5.64,16.67-11.09,20.75c-5.45,4.08-13.72,6.11-24.82,6.11h-16.73l10.34-52.24H442.07z M374.21,585.04h27.91
				l6.66-33.59h23.58c10.69,0,19.28-1.13,26.15-3.39c6.87-2.26,12.98-5.83,18.71-11.1c4.77-4.33,8.59-9.03,11.45-14.11
				c2.86-5.08,4.96-10.72,6.11-16.93c3.05-15.05,0.76-26.71-6.68-35.17s-19.28-12.6-35.5-12.6H399.2L374.21,585.04z"/>
		</g>
	</g>
</g>
<g>
	<path class="st5" d="M1169.26,616.19c-22.06-0.51-39.15,1.54-53.49,7.18c-4.14,1.54-10.75,1.54-11.3,6.41
		c2.21,2.05,2.48,5.38,4.41,8.2c3.31,5.12,9.1,12.05,14.34,15.64c5.79,4.1,11.58,8.2,17.64,11.79c10.75,6.15,22.88,9.74,33.36,15.89
		c6.07,3.59,12.13,8.2,18.2,12.05c3.03,2.05,4.96,5.38,9.58,6.66v-0.77c-2.69-2.31-3.24-5.64-5.17-8.2
		c-2.76-2.56-5.51-4.87-8.27-7.43c-8-9.99-17.92-18.71-28.67-25.89c-8.82-5.64-28.12-13.33-31.71-22.81c0,0-0.28-0.26-0.55-0.51
		c6.07-0.51,13.23-2.56,19.02-4.1c9.37-2.31,17.92-1.79,27.57-4.1c4.41-1.03,13.52-3.59,13.52-3.59v-2.02
		c-4.97-4.62-8.56-10.78-13.81-15.15c-14.09-11.3-29.55-22.34-45.57-31.58c-8.56-5.14-19.61-8.47-28.73-12.84
		c-3.31-1.54-8.84-2.31-10.77-4.88c-4.97-5.65-7.74-13.09-11.33-19.77c-8.01-14.12-15.74-29.79-22.65-44.68
		c-4.97-10.01-8.01-20.03-14.09-29.27c-28.45-43.65-59.38-70.1-106.89-96.03c-10.22-5.39-22.37-7.7-35.35-10.53
		c-6.9-0.26-13.81-0.77-20.72-1.03c-4.42-1.8-8.84-6.68-12.71-8.99c-15.74-9.24-56.35-29.27-67.95-2.82
		c-7.46,16.69,11.05,33.12,17.4,41.6c4.7,5.91,10.77,12.58,14.09,19.26c1.93,4.36,2.48,8.99,4.42,13.61
		c4.42,11.3,8.56,23.88,14.36,34.41c3.04,5.39,6.35,11.04,10.22,15.92c2.21,2.82,6.08,4.11,6.91,8.73
		c-3.87,5.14-4.14,12.84-6.35,19.26c-9.94,29.02-6.08,64.96,8.01,86.28c4.42,6.42,14.92,20.54,29,15.15
		c12.43-4.62,9.67-19.26,13.26-32.1c0.83-3.08,0.28-5.14,1.93-7.19c0,0.26,0,0.99,0,0.99c3.82,7.18,7.64,14.1,11.18,21.27
		c8.46,12.56,23.19,25.63,35.46,34.35c6.55,4.61,11.73,12.56,19.91,15.38v-0.77h0.39c0,0-4.14-3.97-6.34-5.77
		c-4.96-4.61-10.48-10.25-14.34-15.38c-11.58-14.35-21.78-30.24-30.88-46.65c-4.41-7.94-8.27-16.66-11.85-24.6
		c-1.66-3.08-1.66-7.69-4.41-9.23c-4.14,5.64-10.2,10.51-13.23,17.43c-5.24,11.02-5.79,24.6-7.72,38.7c-1.1,0.26-0.55,0-1.1,0.51
		c-8.82-2.05-11.85-10.51-15.16-17.69c-8.27-18.2-9.65-47.42-2.48-68.43c1.93-5.38,10.2-22.3,6.89-27.42
		c-1.65-4.87-7.17-7.69-10.2-11.53c-3.58-4.87-7.44-11.02-9.92-16.4c-6.62-14.35-9.93-30.24-17.09-44.6
		c-3.31-6.66-9.1-13.58-13.78-19.73c-5.24-6.92-11.03-11.79-15.16-19.99c-1.38-2.82-3.31-7.43-1.1-10.51
		c0.55-2.05,1.65-2.82,3.86-3.33c3.58-2.82,13.78,0.77,17.37,2.31c10.2,3.84,18.75,7.43,27.29,12.82c3.86,2.56,7.99,7.43,12.96,8.75
		h5.79c8.82,1.75,18.75,0.47,27.02,2.78c14.61,4.36,27.84,10.76,39.7,17.69c36.12,21.27,65.89,51.52,86.02,87.66
		c3.31,5.89,4.69,11.28,7.72,17.43c5.79,12.56,12.96,25.37,18.75,37.68c5.79,12.04,11.3,24.35,19.57,34.35
		c4.14,5.38,20.68,8.2,28.12,11.02c5.51,2.31,14.06,4.36,19.02,7.18c9.37,5.38,18.75,11.53,27.57,17.43
		C1154.65,604.65,1168.43,611.06,1169.26,616.19L1169.26,616.19L1169.26,616.19z"/>
	<path class="st5" d="M888.45,393.11c-4.69,0-7.99,0.51-11.3,1.28c0,0,0,0.26,0,0.51h0.55c2.21,4.1,6.06,6.92,8.82,10.51
		c2.21,4.1,4.14,8.2,6.34,12.3c0.27-0.26,0.55-0.51,0.55-0.51c3.86-2.56,5.79-6.66,5.79-12.82c-1.66-1.79-1.93-3.59-3.31-5.38
		C894.24,396.44,890.65,395.16,888.45,393.11L888.45,393.11L888.45,393.11z"/>
</g>
<rect x="625" y="498" width="117" height="33"/>
<rect x="667" y="454" width="33" height="121"/>
</svg>
